<svg xmlns="http://www.w3.org/2000/svg" width="1024" height="1024" viewBox="0 0 108 108" role="img" aria-labelledby="title desc">
  <title id="title">Runeterra launcher icon</title>
  <desc id="desc">A reconstructed gold celestial sigil on a deep navy rounded background, designed as an Android launcher icon source.</desc>
  <rect width="108" height="108" rx="18" fill="#071823"/>
  <g fill="none" stroke="#F1D27A" stroke-linecap="round" stroke-linejoin="round">
    <path d="M 25.26,42.39 A 31.00,31.00 0 0 1 58.31,23.30" stroke-width="4.4"/>
    <path d="M 65.61,25.26 A 31.00,31.00 0 0 1 83.65,44.94" stroke-width="4.4"/>
    <path d="M 83.48,63.58 A 31.00,31.00 0 0 1 48.62,84.53" stroke-width="4.4"/>
    <path d="M 41.39,82.32 A 31.00,31.00 0 0 1 23.92,46.50" stroke-width="4.4"/>
    <path d="M 38.41,45.00 A 18.00,18.00 0 0 1 71.12,59.56" stroke-width="4"/>
    <path d="M 69.59,63.00 A 18.00,18.00 0 0 1 37.69,46.39" stroke-width="4"/>
    <path d="M 29.10,51.82 A 25.00,25.00 0 0 1 78.62,49.66" stroke-width="2.4" opacity=".9"/>
    <path d="M 31.40,44.30 A 3.70,3.70 0 0 1 31.40,36.90" stroke-width="2.2"/>
    <path d="M 40.40,70.80 A 4.10,4.10 0 0 1 46.00,76.80" stroke-width="2.2"/>
    <path d="M 79.00,45.50 C 76.70,47.50 76.40,50.40 79.00,52.80" stroke-width="2.2"/>
    <path d="M 79.00,45.50 C 82.00,47.60 82.30,50.40 79.00,52.80" stroke-width="2.2"/>
  </g>
  <g fill="#F1D27A">
    <path d="M 54.00,43.50 L 56.55,51.45 L 64.50,54.00 L 56.55,56.55 L 54.00,64.50 L 51.45,56.55 L 43.50,54.00 L 51.45,51.45 Z"/>
    <path d="M 54.00,8.20 L 55.34,12.66 L 59.80,14.00 L 55.34,15.34 L 54.00,19.80 L 52.66,15.34 L 48.20,14.00 L 52.66,12.66 Z"/>
    <path d="M 54.00,88.20 L 55.34,92.66 L 59.80,94.00 L 55.34,95.34 L 54.00,99.80 L 52.66,95.34 L 48.20,94.00 L 52.66,92.66 Z"/>
    <path d="M 14.00,48.20 L 15.34,52.66 L 19.80,54.00 L 15.34,55.34 L 14.00,59.80 L 12.66,55.34 L 8.20,54.00 L 12.66,52.66 Z"/>
    <path d="M 94.00,48.20 L 95.34,52.66 L 99.80,54.00 L 95.34,55.34 L 94.00,59.80 L 92.66,55.34 L 88.20,54.00 L 92.66,52.66 Z"/>
    <path d="M 72.30,34.50 A 4.30,4.30 0 1 1 63.70,34.50 A 4.30,4.30 0 1 1 72.30,34.50 Z M 72.70,33.70 A 3.20,3.20 0 1 1 66.30,33.70 A 3.20,3.20 0 1 1 72.70,33.70 Z" fill-rule="evenodd"/>
    <path d="M 78.10,64.00 A 4.60,4.60 0 1 1 68.90,64.00 A 4.60,4.60 0 1 1 78.10,64.00 Z M 78.30,63.20 A 3.30,3.30 0 1 1 71.70,63.20 A 3.30,3.30 0 1 1 78.30,63.20 Z" fill-rule="evenodd"/>
    <path d="M 69.00,32.20 L 69.71,34.29 L 71.80,35.00 L 69.71,35.71 L 69.00,37.80 L 68.29,35.71 L 66.20,35.00 L 68.29,34.29 Z"/>
    <path d="M 76.00,61.50 L 76.64,63.36 L 78.50,64.00 L 76.64,64.64 L 76.00,66.50 L 75.36,64.64 L 73.50,64.00 L 75.36,63.36 Z"/>
    <path d="M 33.00,28.70 L 33.57,30.43 L 35.30,31.00 L 33.57,31.57 L 33.00,33.30 L 32.43,31.57 L 30.70,31.00 L 32.43,30.43 Z"/>
    <path d="M 43.60,24.90 L 48.30,24.90 L 45.70,27.70 L 47.80,27.70 L 46.20,31.80 L 43.80,31.80 L 45.20,28.90 L 41.80,28.90 Z"/>
    <path d="M 28.50,58.90 L 31.80,59.70 L 31.20,67.00 L 29.50,65.20 L 29.00,62.50 L 27.90,65.50 L 26.70,65.50 L 26.70,60.50 Z"/>
    <path d="M 37.50,69.20 C 39.00,67.00 42.00,66.50 44.00,67.90 C 41.70,69.30 40.50,71.40 40.10,73.80 C 38.50,73.00 37.70,71.50 37.50,69.20 Z"/>
    <path d="M 62.00,72.20 L 65.50,71.40 L 64.00,74.10 L 65.60,76.00 L 64.00,77.10 L 64.60,80.50 L 62.80,79.80 Z"/>
  </g>
</svg>
